<?xml version="1.0" encoding="utf-8"?>
<!-- Generator: Adobe Illustrator 24.2.1, SVG Export Plug-In . SVG Version: 6.00 Build 0)  -->
<svg version="1.1" id="Layer_1" xmlns="http://www.w3.org/2000/svg" xmlns:xlink="http://www.w3.org/1999/xlink" x="0px" y="0px"
	 viewBox="0 0 64 64" style="enable-background:new 0 0 64 64;" xml:space="preserve">
<style type="text/css">
	.st0{clip-path:url(#SVGID_2_);}
	.st1{clip-path:url(#SVGID_4_);fill-rule:evenodd;clip-rule:evenodd;fill:#020202;}
	.st2{clip-path:url(#SVGID_4_);fill:#020202;}
	.st3{clip-path:url(#SVGID_4_);fill:#FFFFFF;}
	.st4{clip-path:url(#SVGID_6_);fill:#FFFFFF;}
	.st5{clip-path:url(#SVGID_8_);fill-rule:evenodd;clip-rule:evenodd;fill:#020202;}
</style>
<g>
	<g>
		<defs>
			<rect id="SVGID_1_" x="2" y="2" width="60" height="60"/>
		</defs>
		<clipPath id="SVGID_2_">
			<use xlink:href="#SVGID_1_"  style="overflow:visible;"/>
		</clipPath>
		<g class="st0">
			<defs>
				<rect id="SVGID_3_" x="2" y="2" width="60" height="60"/>
			</defs>
			<clipPath id="SVGID_4_">
				<use xlink:href="#SVGID_3_"  style="overflow:visible;"/>
			</clipPath>
			<path class="st1" d="M42.58,28.5c-0.06,0.07-0.06,0.12-0.06,0.12S42.54,28.58,42.58,28.5"/>
			<path class="st1" d="M58.79,36.92c0.01-0.14-0.01-0.29-0.05-0.45l-0.47-2.39l-0.04-0.21c-0.01-0.06-0.02-0.12-0.04-0.17l0,0h0
				c-0.22-0.9-0.82-1.66-1.66-2.07l-3.41-1.68c0,0,0,0-0.01,0c-0.21-0.1-0.44,0.09-0.36,0.31l0.74,2.18
				c0.06,0.18-0.08,0.35-0.26,0.34l-0.98-0.07c-0.08-0.01-0.17,0.03-0.22,0.09L49,36.52c-0.04,0.05-0.09,0.08-0.15,0.09l2.65-7.74
				l0-0.07v-0.98c0,0,3.09,0.1,4.55-1.4c0,0-2.13-0.6-1.75-4.49c0.38-3.88-0.48-7.29-3.6-7c0,0-1.35-1.63-4.04-0.6
				c-0.92,0.35-3.68,1.25-3.28,6.62c0.35,4.73-0.56,7.04-0.81,7.56c0.17-0.21,0.85-0.63,3.51-0.66v1l2.66,7.76
				c-0.06-0.01-0.11-0.04-0.15-0.09l-3.03-3.73c-0.05-0.07-0.14-0.1-0.22-0.09l-0.98,0.07c-0.19,0.01-0.32-0.17-0.26-0.34l0.76-2.19
				c0.08-0.22-0.15-0.42-0.36-0.31l-0.11,0.06l-3.33,1.64c-0.89,0.44-1.52,1.28-1.7,2.25l-0.47,2.59h-0.01
				c-0.02,0.12-0.04,0.23-0.05,0.34l-0.01,0.08c-0.02,0.09,0,0.18,0.05,0.25c0.08,0.29,0.31,0.55,0.81,0.81
				c1.66,0.88,5.4,1.33,9.14,1.33c3.74,0,7.48-0.44,9.14-1.33c0.55-0.29,0.77-0.58,0.83-0.9C58.79,37,58.79,36.96,58.79,36.92
				 M51.77,36.15c0-0.14,0.12-0.26,0.26-0.26h2.61c0.14,0,0.26,0.12,0.26,0.26v0.06c0,0.13-0.1,0.24-0.22,0.26H52
				c-0.13-0.02-0.22-0.13-0.22-0.26V36.15z"/>
			<path class="st2" d="M26.02,30.42c-2.34-0.56-6.79-1.93-6.79-1.93s0.13,3.85-0.2,4.93c-0.22,0.72-0.87,2.19-1.65,3.53l-0.34-4.07
				l-0.64-1.13l0.3-0.3l0.24-0.82l-0.69-0.51h-0.7l-0.67,0.54l0.18,0.79l0.42,0.3l-0.64,1.23l-0.34,3.89
				c-0.81-1.28-1.51-2.66-1.73-3.36c-0.34-1.08-0.2-4.99-0.2-4.99s-4.23,1.33-6.59,1.93c-1.32,0.74-2.22,5.85-2.15,6.63
				c0.08,0.91,7.79,2.45,11.93,2.45c5.82,0,12.16-1.57,12.24-2.48C28.11,36.26,27.05,31.17,26.02,30.42"/>
			<path class="st2" d="M20.29,21.2c-0.03-0.4-0.27-0.3-0.47-0.15c0-0.15,0-0.31,0-0.47c0.11-0.23,0.28-0.56,0.33-0.96
				c0.17-1.27,0.01-2.67-0.08-3.08c-0.09-0.42-0.68-0.74-1.07-0.79c0.43-0.2,0.43-0.78,0.48-1.22c0.03-0.3-0.33,0.66-1.62,0.08
				c-4.54-1.27-4.81,1.03-4.94,1.15c-1.48,0.04-1.46,1.64-1.46,1.64s-0.06,2.02,0.1,2.51c0.09,0.42,0.2,0.71,0.28,0.88
				c0,0.08,0,0.16,0,0.23c-0.2-0.15-0.45-0.25-0.47,0.15c-0.04,0.68,0.21,2.11,0.21,2.11s0.16,0.86,0.53,0.41
				c0.09,0.66,0.28,1.59,0.66,1.98c0.1,0.1,0.2,0.22,0.3,0.35c0,0,1.51,1.49,2.47,1.5c0,0,0.45,0.09,0.73-0.05
				c-0.26,0.23-0.62,0.18-0.8,0.18c-0.18,0-1.21-0.14-2.41-1.22l-0.07,1.65l2.61,1.87h0.65L18.78,28l-0.13-2.02
				c0.08-0.1,0.15-0.19,0.24-0.27c0.39-0.39,0.57-1.32,0.66-1.98c0.37,0.45,0.53-0.41,0.53-0.41S20.33,21.89,20.29,21.2"/>
			<path class="st3" d="M32.18,48.59c-2.63,0-6.52-0.46-10.17-1.2c-1.72-0.35-3.19-0.73-4.26-1.09c-0.57-0.19-1.01-0.38-1.32-0.56
				c-0.39-0.22-0.59-0.44-0.61-0.67c-0.05-0.59,0.25-2.62,0.76-4.58c0.46-1.78,1.23-4.02,2.27-4.6l0.03-0.01l0.03-0.01
				c2.87-0.72,8.34-2.75,9.29-3.1l0.1-2.57l0,0c-0.13-0.17-0.23-0.29-0.34-0.39c-0.41-0.41-0.71-1.23-0.91-2.45
				c-0.08,0.02-0.15,0.01-0.21,0c-0.19-0.05-0.34-0.22-0.46-0.53c-0.07-0.19-0.11-0.37-0.11-0.37l0,0
				c-0.01-0.08-0.35-1.97-0.29-2.91c0.02-0.29,0.12-0.48,0.29-0.56c0.1-0.04,0.21-0.05,0.33-0.02c-0.05-1.41-0.15-3.09-0.15-3.1
				l0-0.02l0-0.02c0.1-1.05,0.48-1.95,1.11-2.69c0.51-0.59,1.18-1.07,1.99-1.42c1.38-0.6,2.68-0.65,2.73-0.66l0.22-0.01l0,0.04
				c0.48,0.03,1.7,0.15,2.89,0.73c0.74,0.36,1.33,0.84,1.76,1.42c0.52,0.71,0.8,1.56,0.83,2.54l0,0.01l0,0.01
				c0,0.02-0.09,1.53-0.14,2.89c0,0.1-0.01,0.2-0.01,0.3c0.12-0.03,0.23-0.03,0.32,0.02c0.18,0.08,0.27,0.27,0.29,0.56
				c0.06,0.94-0.28,2.83-0.29,2.91l0,0c0,0.01-0.04,0.19-0.11,0.37c-0.12,0.31-0.27,0.48-0.46,0.53c-0.06,0.01-0.13,0.02-0.21,0
				c-0.2,1.22-0.5,2.04-0.91,2.45c-0.08,0.08-0.16,0.17-0.25,0.28l0.16,2.5c0.96,0.36,6.77,2.51,9.63,3.2l0.04,0.01l0.04,0.03
				c0.36,0.26,0.72,0.84,1.1,1.78c0.3,0.75,0.62,1.72,0.9,2.81c0.49,1.88,0.87,3.98,0.82,4.57c-0.02,0.22-0.19,0.44-0.52,0.66
				c-0.27,0.18-0.66,0.37-1.15,0.57c-0.96,0.38-2.3,0.76-3.87,1.11C39.85,48.14,35.76,48.59,32.18,48.59z M19.04,36.3
				c-0.36,0.21-0.74,0.75-1.1,1.55c-0.33,0.73-0.64,1.65-0.92,2.75c-0.52,1.99-0.78,3.95-0.74,4.43c0,0,0.05,0.31,1.64,0.84
				c1.05,0.36,2.5,0.73,4.2,1.07c3.61,0.73,7.47,1.19,10.06,1.19c3.55,0,7.61-0.44,11.13-1.21c1.55-0.34,2.86-0.71,3.8-1.09
				c1.34-0.53,1.38-0.84,1.38-0.85c0.04-0.48-0.28-2.42-0.8-4.42c-0.28-1.08-0.59-2.03-0.88-2.76c-0.4-0.99-0.71-1.39-0.91-1.56
				c-3.16-0.76-9.71-3.23-9.78-3.26l-0.14-0.05l-0.19-2.96l0.05-0.07c0.12-0.16,0.23-0.28,0.34-0.39c0.36-0.36,0.66-1.27,0.83-2.55
				l0.07-0.51l0.33,0.4c0.05,0.06,0.08,0.08,0.1,0.09c0.07-0.05,0.18-0.31,0.23-0.55c0.01-0.06,0.34-1.93,0.29-2.8
				c-0.01-0.1-0.02-0.15-0.03-0.17c-0.02,0-0.07,0.02-0.15,0.07l0,0.03H37.8c-0.01,0.01-0.03,0.02-0.05,0.03l-0.37,0.28l0.01-0.46
				c0-0.01,0-0.03,0-0.04l0-0.26h0.01c0-0.13,0.01-0.26,0.01-0.39c0.05-1.31,0.13-2.76,0.14-2.89c-0.03-0.88-0.28-1.65-0.74-2.28
				c-0.39-0.52-0.92-0.95-1.6-1.28c-1.12-0.55-2.38-0.69-2.9-0.69c0,0-0.01,0-0.01,0l-0.21,0l0-0.01c-0.42,0.04-1.38,0.18-2.36,0.61
				c-0.75,0.33-1.36,0.77-1.83,1.31c-0.57,0.66-0.9,1.47-1,2.42c0.01,0.19,0.11,1.8,0.15,3.15c0,0.02,0,0.04,0,0.07h0.01l0,0.24
				c0,0.01,0,0.02,0,0.03l0.01,0.47l-0.37-0.28c0,0,0,0-0.01,0h-0.08l0-0.06c-0.08-0.05-0.13-0.07-0.15-0.07
				c-0.01,0.02-0.03,0.07-0.03,0.17c-0.05,0.88,0.27,2.74,0.29,2.8c0.05,0.24,0.16,0.5,0.23,0.55c0.01-0.01,0.05-0.03,0.1-0.09
				l0.33-0.4l0.07,0.51c0.17,1.28,0.47,2.18,0.83,2.55c0.13,0.13,0.26,0.28,0.41,0.49c0.08,0.08,0.55,0.53,1.15,0.98
				c0.84,0.63,1.54,0.97,2.01,0.97l0.02,0l0.02,0c0.15,0.03,0.59,0.08,0.84-0.04l1.55-0.77l-1.3,1.14c-0.37,0.33-0.85,0.31-1.13,0.3
				c-0.04,0-0.07,0-0.1,0c-0.39,0-1.64-0.26-3.05-1.4l-0.08,1.92l-0.14,0.05C28.43,33.17,22.21,35.5,19.04,36.3z M37.52,26.96
				L37.52,26.96L37.52,26.96z M26.94,26.93C26.94,26.93,26.94,26.93,26.94,26.93S26.94,26.93,26.94,26.93z"/>
			<path class="st2" d="M46,36.05c-3.16-0.76-9.8-3.26-9.8-3.26l-0.17-2.73c0.1-0.14,0.21-0.26,0.32-0.37
				c0.52-0.52,0.78-1.78,0.9-2.67c0.5,0.6,0.72-0.56,0.72-0.56s0.35-1.93,0.29-2.86c-0.03-0.54-0.37-0.41-0.64-0.2
				c0-0.03,0-0.05,0-0.08h0.01c0.01-0.2,0.01-0.4,0.02-0.61c0.05-1.38,0.14-2.9,0.14-2.9c-0.12-4.06-4.64-4.48-5.48-4.48
				c0-0.02,0-0.03,0-0.03s-5.19,0.18-5.62,4.57c0,0,0.1,1.73,0.15,3.16c0,0.1,0.01,0.19,0.01,0.28h0c0,0.02,0,0.03,0,0.05
				c-0.27-0.2-0.6-0.34-0.64,0.2c-0.06,0.92,0.29,2.86,0.29,2.86s0.22,1.16,0.72,0.56c0.12,0.9,0.37,2.15,0.9,2.67
				c0.14,0.14,0.27,0.3,0.4,0.48c0,0,2.04,2.01,3.33,2.03c0,0,0.61,0.12,0.98-0.06c-0.35,0.31-0.84,0.25-1.08,0.25
				c-0.24,0-1.64-0.19-3.25-1.65l-0.09,2.23c0,0-6.27,2.36-9.45,3.16c-1.78,1-3,7.9-2.91,8.96c0.11,1.22,10.53,3.31,16.13,3.31
				c7.87,0,16.44-2.13,16.54-3.36C48.81,43.95,47.38,37.06,46,36.05"/>
		</g>
		<g class="st0">
			<defs>
				<rect id="SVGID_5_" x="29.18" y="38.48" width="6.4" height="6.46"/>
			</defs>
			<clipPath id="SVGID_6_">
				<use xlink:href="#SVGID_5_"  style="overflow:visible;"/>
			</clipPath>
			<path class="st4" d="M32.62,42.13c0.33-0.49,1.3-2.09,0.72-3c0.27,0.55-0.34,1.67-0.58,2.06C32.78,41.49,32.74,41.81,32.62,42.13
				"/>
			<path class="st4" d="M35.58,41.48c-0.03-0.35-0.11-0.68-0.25-0.99c-0.3-0.71-0.85-1.29-1.55-1.63c0.14,0.09,0.27,0.19,0.39,0.29
				c0.38,0.3,0.67,0.69,0.85,1.14c0.18,0.41,0.26,0.87,0.2,1.35c-0.04,0.33-0.13,0.63-0.26,0.91c0,0.01-0.01,0.02-0.01,0.03
				c-0.2,0.42-0.51,0.78-0.88,1.05c-0.09,0.06-0.2,0.13-0.32,0.2c0,0,0,0,0,0c-0.24,0.13-0.47,0.21-0.69,0.26
				c-0.02,0.01-0.04,0.01-0.06,0.02c-0.2,0.04-0.4,0.05-0.59,0.04c0,0,0,0,0,0c-0.17-0.01-0.33-0.03-0.47-0.07
				c-0.06-0.01-0.1-0.02-0.13-0.03c-0.16-0.04-0.32-0.11-0.46-0.18c-0.01-0.01-0.01-0.01-0.01-0.01v0c-0.1-0.05-0.19-0.11-0.28-0.18
				c-0.19-0.14-0.35-0.32-0.49-0.52c-0.24-0.35-0.37-0.76-0.38-1.2c0-0.09,0.01-0.18,0.02-0.27c0.03-0.2,0.08-0.4,0.15-0.57
				c0.01-0.03,0.04-0.08,0.05-0.11c0.12-0.24,0.5-0.86,1.25-0.97c0.94-0.14,1.07,0.77,1.07,0.77s1.37-2.42-0.57-2.31
				c-0.21,0-0.41,0.04-0.61,0.1c0,0,0,0,0,0c-0.02,0-0.04,0.01-0.06,0.02c-0.68,0.22-1.28,0.73-1.68,1.3
				c-0.08,0.11-0.15,0.23-0.22,0.35h0c-0.13,0.25-0.26,0.54-0.33,0.89l0,0c0,0.01,0,0.02-0.01,0.03c-0.02,0.09-0.03,0.18-0.03,0.27
				c-0.06,0.79,0.16,1.53,0.59,2.13c0.26,0.36,0.59,0.66,0.97,0.89h0c0,0,0.78,0.56,1.98,0.46c0.54-0.05,1-0.25,1.34-0.46
				c0,0,0,0,0,0c0.01-0.01,0.03-0.02,0.04-0.03c0.13-0.08,0.26-0.18,0.37-0.28c0.02-0.01,0.03-0.03,0.05-0.05
				c0.15-0.14,0.24-0.24,0.24-0.24l0,0c0.34-0.38,0.58-0.84,0.71-1.35c0.03-0.14,0.06-0.28,0.08-0.42
				C35.59,41.9,35.59,41.69,35.58,41.48"/>
		</g>
		<g class="st0">
			<defs>
				<rect id="SVGID_7_" x="2" y="2" width="60" height="60"/>
			</defs>
			<clipPath id="SVGID_8_">
				<use xlink:href="#SVGID_7_"  style="overflow:visible;"/>
			</clipPath>
			<polyline class="st5" points="13.07,26.46 13.07,24.5 17.68,27.23 17.14,28.76 15.06,28.76 			"/>
		</g>
	</g>
</g>
</svg>
