<?xml version="1.0" encoding="utf-8"?>
<!-- Generator: Adobe Illustrator 24.2.1, SVG Export Plug-In . SVG Version: 6.00 Build 0)  -->
<svg version="1.1" id="Layer_1" xmlns="http://www.w3.org/2000/svg" xmlns:xlink="http://www.w3.org/1999/xlink" x="0px" y="0px"
	 viewBox="0 0 64 64" style="enable-background:new 0 0 64 64;" xml:space="preserve">
<style type="text/css">
	.st0{fill-rule:evenodd;clip-rule:evenodd;}
	.st1{opacity:0.15;fill:#FFFFFF;}
	.st2{opacity:0.35;fill-rule:evenodd;clip-rule:evenodd;}
	.st3{opacity:0.15;fill-rule:evenodd;clip-rule:evenodd;fill:#FFFFFF;}
	.st4{fill:#FFFFFF;}
</style>
<g>
	<rect x="2.82" y="42.65" class="st0" width="58.36" height="11.29"/>
	<path class="st0" d="M20.81,35.58h22.37c0.3,0,0.54,0.24,0.54,0.54v0.48c0,0.3-0.24,0.54-0.54,0.54H20.81
		c-0.3,0-0.54-0.24-0.54-0.54v-0.48C20.27,35.82,20.52,35.58,20.81,35.58z"/>
	<path class="st0" d="M2.54,42.65h58.92c0.3,0,0.54,0.24,0.54,0.54v0.48c0,0.3-0.24,0.54-0.54,0.54H2.54c-0.3,0-0.54-0.24-0.54-0.54
		v-0.48C2,42.9,2.24,42.65,2.54,42.65z"/>
	<path class="st1" d="M61.46,42.65h-7v1.56H2.82v0.31h11.49l6.78,6.72v-6.72h33.37l6.72,6.72v-6.72h0v-0.31h0.28
		c0.3,0,0.54-0.24,0.54-0.54v-0.48C62,42.9,61.76,42.65,61.46,42.65z"/>
	<rect x="21.09" y="37.14" class="st0" width="21.82" height="16.8"/>
	<rect x="21.09" y="37.14" class="st2" width="21.82" height="0.31"/>
	<path class="st3" d="M29.11,37.45h13.8v13.8L29.11,37.45L29.11,37.45z M29.11,35.58h14.07c0.3,0,0.54,0.24,0.54,0.54v0.48
		c0,0.3-0.24,0.54-0.54,0.54H29.11V35.58z"/>
	<g>
		<path d="M32.52,22.43c1.11-1.67,4.39-7.1,2.45-10.17c0.93,1.85-1.15,5.65-1.96,7C33.07,20.24,32.91,21.34,32.52,22.43"/>
		<path d="M42.54,20.22c-0.1-1.18-0.39-2.31-0.83-3.37c-1.02-2.4-2.88-4.39-5.26-5.54c0.47,0.3,0.91,0.63,1.33,0.99
			c1.27,1.02,2.27,2.35,2.89,3.87c0.6,1.4,0.87,2.94,0.69,4.57c-0.13,1.1-0.44,2.14-0.9,3.08c-0.01,0.03-0.03,0.06-0.04,0.09
			c-0.69,1.43-1.73,2.65-3,3.57c-0.31,0.22-0.68,0.45-1.09,0.67c0,0,0,0,0,0c-0.8,0.45-1.59,0.73-2.34,0.89
			c-0.07,0.02-0.14,0.04-0.22,0.05c-0.67,0.15-1.37,0.16-2,0.12c0,0,0,0,0,0c-0.58-0.03-1.12-0.12-1.59-0.22
			c-0.19-0.04-0.35-0.07-0.45-0.09c-0.56-0.15-1.08-0.36-1.57-0.63c-0.03-0.02-0.05-0.03-0.05-0.03l0,0
			c-0.34-0.18-0.65-0.39-0.95-0.62c-0.64-0.49-1.2-1.08-1.66-1.75c-0.8-1.18-1.27-2.58-1.29-4.07c0-0.29,0.05-0.62,0.08-0.92
			c0.09-0.69,0.26-1.34,0.51-1.94c0.05-0.11,0.12-0.26,0.17-0.37c0.41-0.83,1.7-2.93,4.23-3.31c3.17-0.47,3.63,2.62,3.63,2.62
			s4.65-8.2-1.94-7.82c-0.7,0.01-1.4,0.12-2.07,0.32c0,0,0,0,0,0c-0.07,0.02-0.13,0.04-0.2,0.06c-2.3,0.74-4.34,2.47-5.71,4.42
			c-0.27,0.38-0.52,0.78-0.74,1.2h0c-0.44,0.84-0.9,1.82-1.13,3l0,0c-0.01,0.04-0.01,0.07-0.02,0.11c-0.05,0.29-0.09,0.6-0.12,0.92
			c-0.22,2.66,0.55,5.19,2,7.22c0.87,1.21,1.99,2.25,3.29,3.03l0,0c0,0,2.65,1.92,6.71,1.58c1.84-0.15,3.38-0.84,4.54-1.57
			c0,0,0.01-0.01,0.01-0.01c0.05-0.03,0.09-0.06,0.13-0.09c0.45-0.29,0.87-0.61,1.27-0.96c0.06-0.05,0.12-0.1,0.17-0.16
			c0.52-0.47,0.8-0.81,0.8-0.81l0,0c1.14-1.28,1.98-2.84,2.41-4.57c0.11-0.46,0.21-0.93,0.26-1.42
			C42.59,21.63,42.6,20.92,42.54,20.22"/>
	</g>
	<path class="st4" d="M31.8,44.68v-2.81h-0.91v-0.54c0.33,0,0.58-0.06,0.76-0.18s0.3-0.29,0.35-0.52h0.56v4.06H31.8z"/>
	<path class="st4" d="M12.19,48.2l-0.47,0.49c-0.08,0.08-0.15,0.17-0.2,0.25s-0.08,0.17-0.08,0.25h1v0.42h-1.58
		c0.01-0.21,0.02-0.38,0.05-0.5c0.03-0.12,0.08-0.24,0.15-0.37c0.08-0.12,0.2-0.27,0.36-0.45l0.25-0.26
		c0.08-0.09,0.15-0.16,0.18-0.22c0.04-0.06,0.06-0.11,0.07-0.16c0.01-0.05,0.02-0.11,0.02-0.18c0-0.12-0.02-0.2-0.06-0.26
		c-0.04-0.06-0.11-0.08-0.2-0.08c-0.11,0-0.19,0.03-0.23,0.1c-0.04,0.06-0.06,0.17-0.06,0.33v0.12h-0.5v-0.13
		c0-0.56,0.27-0.84,0.8-0.84c0.24,0,0.43,0.07,0.57,0.21s0.22,0.32,0.22,0.54c0,0.15-0.03,0.28-0.08,0.41
		C12.36,48,12.28,48.1,12.19,48.2z"/>
	<path class="st4" d="M52.15,48.03L52.15,48.03c0.14,0.03,0.25,0.09,0.32,0.21c0.08,0.12,0.12,0.28,0.12,0.48
		c0,0.31-0.07,0.54-0.21,0.69c-0.14,0.15-0.35,0.23-0.63,0.23c-0.26,0-0.46-0.07-0.59-0.2c-0.13-0.13-0.2-0.34-0.2-0.62v-0.2h0.51
		v0.13c0,0.17,0.02,0.28,0.07,0.35c0.05,0.07,0.12,0.1,0.23,0.1c0.12,0,0.2-0.04,0.24-0.12c0.04-0.08,0.06-0.2,0.06-0.36
		c0-0.14-0.01-0.25-0.03-0.31c-0.02-0.06-0.06-0.11-0.14-0.14c-0.07-0.03-0.19-0.04-0.35-0.04H51.5v-0.43h0.11
		c0.14,0,0.24-0.03,0.3-0.09c0.06-0.06,0.09-0.16,0.09-0.3c0-0.11-0.02-0.19-0.06-0.25c-0.04-0.05-0.11-0.08-0.2-0.08
		c-0.08,0-0.14,0.02-0.19,0.06c-0.04,0.04-0.07,0.1-0.07,0.17v0.2h-0.51v-0.08c0-0.25,0.06-0.45,0.19-0.57
		c0.13-0.13,0.32-0.19,0.57-0.19c0.26,0,0.45,0.06,0.59,0.19c0.13,0.13,0.2,0.31,0.2,0.55c0,0.16-0.03,0.3-0.1,0.41
		C52.36,47.95,52.26,48.01,52.15,48.03z"/>
</g>
</svg>
